<svg width="50" height="50" viewBox="0 0 50 50" fill="none" xmlns="http://www.w3.org/2000/svg">
<g id="Instagram">
<path id="Ellipse 9" d="M50 25C50 38.8071 38.8071 50 25 50C11.1929 50 0 38.8071 0 25C0 11.1929 11.1929 0 25 0C38.8071 0 50 11.1929 50 25Z" fill="white"/>
<path id="Vector" d="M25 15.163C28.204 15.163 28.584 15.175 29.85 15.233C33.102 15.381 34.621 16.924 34.769 20.152C34.827 21.417 34.838 21.797 34.838 25.001C34.838 28.206 34.826 28.585 34.769 29.85C34.62 33.075 33.105 34.621 29.85 34.769C28.584 34.827 28.206 34.839 25 34.839C21.796 34.839 21.416 34.827 20.151 34.769C16.891 34.62 15.38 33.07 15.232 29.849C15.174 28.584 15.162 28.205 15.162 25C15.162 21.796 15.175 21.417 15.232 20.151C15.381 16.924 16.896 15.38 20.151 15.232C21.417 15.175 21.796 15.163 25 15.163ZM25 13C21.741 13 21.333 13.014 20.053 13.072C15.695 13.272 13.273 15.69 13.073 20.052C13.014 21.333 13 21.741 13 25C13 28.259 13.014 28.668 13.072 29.948C13.272 34.306 15.69 36.728 20.052 36.928C21.333 36.986 21.741 37 25 37C28.259 37 28.668 36.986 29.948 36.928C34.302 36.728 36.73 34.31 36.927 29.948C36.986 28.668 37 28.259 37 25C37 21.741 36.986 21.333 36.928 20.053C36.732 15.699 34.311 13.273 29.949 13.073C28.668 13.014 28.259 13 25 13ZM25 18.838C21.597 18.838 18.838 21.597 18.838 25C18.838 28.403 21.597 31.163 25 31.163C28.403 31.163 31.162 28.404 31.162 25C31.162 21.597 28.403 18.838 25 18.838ZM25 29C22.791 29 21 27.21 21 25C21 22.791 22.791 21 25 21C27.209 21 29 22.791 29 25C29 27.21 27.209 29 25 29ZM31.406 17.155C30.61 17.155 29.965 17.8 29.965 18.595C29.965 19.39 30.61 20.035 31.406 20.035C32.201 20.035 32.845 19.39 32.845 18.595C32.845 17.8 32.201 17.155 31.406 17.155Z" fill="#1E1E1E"/>
</g>
</svg>
