<svg width="183" height="266" viewBox="0 0 183 266" fill="none" xmlns="http://www.w3.org/2000/svg">
<path d="M90.8936 133.318L41.9509 133.152L41.6433 223.89L90.586 224.056L90.8936 133.318Z" fill="white"/>
<path d="M181.787 266L132.845 265.845L133.311 133.078C160.346 133.156 182.176 153.044 182.098 177.515L181.787 266Z" fill="white"/>
<path d="M132.689 133L90.7386 132.845C67.5879 132.767 48.8654 113.889 48.9431 90.7386C49.0208 67.5879 67.8987 48.8654 91.0493 48.9431C114.2 49.0208 132.922 67.8987 132.845 91.0493L181.787 91.2047C181.943 41.019 141.39 0.155818 91.2047 0.000444988C41.0191 -0.154929 0.155818 40.3976 0.000444988 90.5832C-0.154929 140.769 40.3975 181.632 90.5832 181.787L181.477 182.098C181.554 155.063 159.724 133.078 132.689 133Z" fill="white"/>
</svg>
