<svg width="237" height="398" viewBox="0 0 237 398" fill="none" xmlns="http://www.w3.org/2000/svg">
<path d="M119.211 171.54L56.2109 171.331L55.8234 288.18L118.823 288.389L119.211 171.54Z" fill="white"/>
<path d="M236.2 342.4L173.2 342.18L173.78 171.28C208.57 171.39 236.69 197.01 236.59 228.49L236.2 342.4Z" fill="white"/>
<path d="M173.02 171.18L119.02 171C108.34 170.964 97.9103 167.763 89.0499 161.799C80.1895 155.836 73.2964 147.38 69.2422 137.499C65.188 127.618 64.1549 116.757 66.2734 106.289C68.3919 95.821 73.5669 86.2164 81.1441 78.6896C88.7212 71.1628 98.3602 66.0519 108.842 64.0032C119.324 61.9545 130.178 63.06 140.031 67.18C149.885 71.3 158.295 78.2493 164.199 87.1493C170.103 96.0492 173.236 106.5 173.2 117.18L236.2 117.4C236.279 94.2599 229.494 71.6159 216.704 52.3316C203.914 33.0473 185.692 17.9889 164.344 9.06046C142.995 0.132049 119.478 -2.2653 96.7674 2.17158C74.0564 6.60845 53.1711 17.6803 36.7526 33.9869C20.334 50.2936 9.11965 71.1027 4.5276 93.7829C-0.0644622 116.463 2.17203 139.996 10.9543 161.405C19.7365 182.814 34.67 201.138 53.8664 214.06C73.0628 226.982 95.6598 233.921 118.8 234L235.8 234.4C235.829 226.127 234.228 217.929 231.089 210.274C227.949 202.62 223.333 195.658 217.503 189.788C211.674 183.917 204.745 179.253 197.112 176.06C189.48 172.867 181.293 171.209 173.02 171.18Z" fill="white"/>
<path d="M26.88 308.8C24.7068 306.925 21.9493 305.865 19.08 305.8C16.92 305.8 14.08 307.06 14.08 309.58C14.08 312.1 17.26 313.24 19.3 313.9L22.3 314.8C28.6 316.66 33.46 319.8 33.46 327.16C33.46 331.66 32.38 336.28 28.78 339.34C25.1202 342.229 20.5604 343.737 15.9 343.6C10.1973 343.545 4.64834 341.744 0 338.44L5 328.96C7.94 331.54 11.42 333.64 15.44 333.64C18.2 333.64 21.14 332.26 21.14 329.08C21.14 325.9 16.52 324.64 14 323.92C6.62 321.82 1.76 319.92 1.76 311.14C1.8 302 8.34 296 17.4 296C22.3496 296.089 27.2056 297.365 31.56 299.72L26.88 308.8Z" fill="white"/>
<path d="M50.76 307.12V314.68H64.02V324.68H50.76V332.48H64.76V342.48H39V297.16H64.74V307.16L50.76 307.12Z" fill="white"/>
<path d="M83.5199 334.54L80.3999 342.4H67.9199L85.3199 297.16H98.1999L115.2 342.4H102.66L99.7199 334.54H83.5199ZM91.7399 311.14H91.6199L86.7599 325.54H96.5399L91.7399 311.14Z" fill="white"/>
<path d="M118.86 297.16H130.62L152.2 324.82H152.32V297.16H164.08V342.4H152.28L130.74 314.68H130.62V342.4H118.86V297.16Z" fill="white"/>
<path d="M69.8401 361.12V368.68H82.7401V378.68H69.8401V396.4H58.0801V351.16H84.0801V361.16L69.8401 361.12Z" fill="white"/>
<path d="M102.9 388.54L99.7798 396.4H87.2998L104.7 351.16H117.54L134.54 396.4H122.04L119.1 388.54H102.9ZM111.12 365.14H111L106.14 379.54H115.92L111.12 365.14Z" fill="white"/>
<path d="M138.2 351.16H150L171.54 378.82H171.66V351.16H183.42V396.4H171.66L150.12 368.68H150V396.4H138.2V351.16Z" fill="white"/>
<path d="M236.2 371.14C236.08 377.74 235.6 383.38 231.58 389.02C227.14 395.2 220.48 397.9 212.92 397.9C198.7 397.9 188.8 388.24 188.8 374.02C188.8 359.32 198.8 349.66 213.34 349.66C222.64 349.66 229.84 353.86 233.74 362.32L222.6 367C220.98 362.68 217.6 359.8 212.82 359.8C205.08 359.8 201.06 367.18 201.06 374.08C201.06 380.98 205.26 388.24 213 388.24C218.1 388.24 222 385.6 222.48 380.38H212.88V371.14H236.2Z" fill="white"/>
</svg>
